<?xml version="1.0" encoding="utf-8"?>
<!-- Generator: Adobe Illustrator 27.5.0, SVG Export Plug-In . SVG Version: 6.00 Build 0)  -->
<svg version="1.1" id="Layer_1" xmlns="http://www.w3.org/2000/svg" xmlns:xlink="http://www.w3.org/1999/xlink" x="0px" y="0px"
	 viewBox="0 0 2372 1898" style="enable-background:new 0 0 2372 1898;" xml:space="preserve">
<g>
	<rect style="fill:#FFFFFF;" width="2371.708" height="1897.367"/>
	
		<radialGradient id="SVGID_1_" cx="410.023" cy="2195.7378" r="471.1698" gradientTransform="matrix(1.7215 -0.1271 0.0543 0.7361 276.3424 -271.5663)" gradientUnits="userSpaceOnUse">
		<stop  offset="0" style="stop-color:#00D0A5"/>
		<stop  offset="0.0601" style="stop-color:#23D6B1"/>
		<stop  offset="0.1586" style="stop-color:#56E0C3"/>
		<stop  offset="0.2619" style="stop-color:#83E8D3"/>
		<stop  offset="0.3677" style="stop-color:#A9EFE1"/>
		<stop  offset="0.4769" style="stop-color:#C8F5EC"/>
		<stop  offset="0.5904" style="stop-color:#E1F9F4"/>
		<stop  offset="0.7102" style="stop-color:#F2FDFA"/>
		<stop  offset="0.8402" style="stop-color:#FCFEFE"/>
		<stop  offset="1" style="stop-color:#FFFFFF"/>
	</radialGradient>
	<path style="fill:url(#SVGID_1_);" d="M1912.548,1232.721c14.141,191.546-337.547,373.634-785.518,406.706
		c-447.97,33.072-822.586-95.397-836.727-286.944c-14.141-191.546,337.547-373.634,785.518-406.706
		C1523.792,912.706,1898.407,1041.175,1912.548,1232.721z"/>
	
		<radialGradient id="SVGID_00000085959712151945955950000008986094485298911417_" cx="576.7966" cy="1763.5167" r="471.1696" gradientTransform="matrix(1.7215 -0.1271 0.0543 0.7361 276.3424 -271.5663)" gradientUnits="userSpaceOnUse">
		<stop  offset="0" style="stop-color:#002D4D"/>
		<stop  offset="0.0601" style="stop-color:#234A65"/>
		<stop  offset="0.1586" style="stop-color:#567489"/>
		<stop  offset="0.2619" style="stop-color:#8399A9"/>
		<stop  offset="0.3677" style="stop-color:#A9B9C3"/>
		<stop  offset="0.4769" style="stop-color:#C8D2D9"/>
		<stop  offset="0.5904" style="stop-color:#E1E6EA"/>
		<stop  offset="0.7102" style="stop-color:#F2F4F6"/>
		<stop  offset="0.8402" style="stop-color:#FCFCFD"/>
		<stop  offset="1" style="stop-color:#FFFFFF"/>
	</radialGradient>
	<path style="fill:url(#SVGID_00000085959712151945955950000008986094485298911417_);" d="M2176.179,893.366
		c14.142,191.546-337.547,373.635-785.518,406.706c-447.97,33.072-822.586-95.397-836.727-286.943
		c-14.141-191.546,337.547-373.635,785.518-406.706C1787.423,573.351,2162.039,701.819,2176.179,893.366z"/>
	<g>
		<path style="fill:#00D0A5;" d="M1618.534,884.915v264.569c0,64.321-52.15,123.734-116.516,132.699l-677.857,94.412v124.378
			c-255.952-47.285-421.773-58.038-421.773-182.104v-264.569c0-64.321,52.149-123.734,116.471-132.693l983.16-136.935
			C1566.384,775.707,1618.534,820.593,1618.534,884.915z"/>
		
			<linearGradient id="SVGID_00000008110492697328491920000001348950443920343442_" gradientUnits="userSpaceOnUse" x1="955.6243" y1="1514.2782" x2="850.0011" y2="1443.2046" gradientTransform="matrix(1 -0.1393 0 1 0 -41.9105)">
			<stop  offset="0" style="stop-color:#FFFFFF"/>
			<stop  offset="0.4383" style="stop-color:#FDFDFD"/>
			<stop  offset="0.6098" style="stop-color:#F6F6F6"/>
			<stop  offset="0.7346" style="stop-color:#EAEAEA"/>
			<stop  offset="0.8368" style="stop-color:#D9D9D9"/>
			<stop  offset="0.9241" style="stop-color:#C2C2C2"/>
			<stop  offset="1" style="stop-color:#A8A8A8"/>
		</linearGradient>
		<path style="fill:url(#SVGID_00000008110492697328491920000001348950443920343442_);" d="M965.685,1237.125v119.758
			l-141.524,19.712C824.161,1337.104,852.501,1264.705,965.685,1237.125z"/>
	</g>
	<g>
		<path style="fill:#FFFFFF;" d="M584.612,1046.929c14.502-16.939,34.388-27.169,59.653-30.689
			c25.252-3.513,51.135-4.632,77.654-3.358l-8.37,67.489c-27.632-2.509-46.612-3.043-56.938-1.608
			c-13.118,1.827-19.674,7.997-19.674,18.49c0,4.143,3.14,7.721,9.419,10.706c6.279,2.998,13.884,6.016,22.814,9.052
			c8.93,3.044,17.86,6.91,26.796,11.6c8.924,4.703,16.535,12.146,22.814,22.312c6.28,10.184,9.419,22.46,9.419,36.826
			c0,26.25-7.116,47.545-21.353,63.9c-14.231,16.354-34.394,26.339-60.489,29.974c-26.095,3.635-51.566,3.172-76.4-1.377l4.606-62.4
			c29.859,4.413,50.653,5.797,62.375,4.169c11.722-1.634,17.583-7.566,17.583-17.796c0-5.237-3.139-9.637-9.419-13.189
			c-6.279-3.538-13.89-6.91-22.813-10.088c-8.937-3.165-17.937-7.026-27.003-11.567c-9.071-4.542-16.747-11.903-23.026-22.081
			c-6.279-10.171-9.419-22.865-9.419-38.061C562.84,1084.643,570.091,1063.875,584.612,1046.929z"/>
		<path style="fill:#FFFFFF;" d="M781.565,1028.207c16.052-22.961,42.353-36.987,78.915-42.076
			c36.557-5.095,62.722,1.486,78.491,19.739c15.763,18.252,23.65,50.376,23.65,96.376c0,46.014-8.094,81.193-24.28,105.551
			c-16.187,24.365-42.424,39.065-78.703,44.122c-36.279,5.05-62.368-2.226-78.278-21.836
			c-15.911-19.616-23.863-52.421-23.863-98.435C757.497,1085.647,765.514,1051.162,781.565,1028.207z M884.549,1061.726
			c-4.046-8.402-12.282-11.76-24.699-10.023c-12.423,1.724-20.446,7.34-24.068,16.817c-3.635,9.49-5.443,26.809-5.443,51.946v9.946
			c0,26.81,2.021,44.135,6.067,52.004c4.047,7.868,12.275,10.931,24.699,9.2c12.417-1.731,20.446-6.852,24.075-15.371
			c3.622-8.518,5.436-25.348,5.436-50.491v-13.266C890.616,1087.068,888.596,1070.154,884.549,1061.726z"/>
		<path style="fill:#FFFFFF;" d="M1019.341,995.086c16.052-22.962,42.353-36.981,78.915-42.076
			c36.557-5.096,62.722,1.492,78.491,19.739c15.769,18.252,23.656,50.376,23.656,96.383s-8.1,81.186-24.28,105.544
			c-16.193,24.371-42.431,39.065-78.703,44.122c-36.286,5.057-62.375-2.226-78.285-21.836
			c-15.904-19.61-23.863-52.422-23.863-98.435C995.273,1052.527,1003.289,1018.042,1019.341,995.086z M1122.325,1028.613
			c-4.046-8.409-12.281-11.761-24.699-10.03c-12.417,1.731-20.446,7.347-24.068,16.824c-3.635,9.49-5.443,26.81-5.443,51.939v9.947
			c0,26.816,2.021,44.141,6.074,52.01c4.04,7.862,12.276,10.924,24.699,9.194c12.411-1.731,20.44-6.852,24.068-15.37
			c3.623-8.518,5.443-25.349,5.443-50.492v-13.266C1128.398,1053.954,1126.372,1037.034,1122.325,1028.613z"/>
		<path style="fill:#FFFFFF;" d="M1431.064,1168.184l-68.654,9.561l-54.004-112.262l-3.352,0.47v119.782l-63.629,8.859V937.215
			l70.751-9.856l51.489,116.34l3.345-0.463V919.722l64.053-8.917V1168.184z"/>
	</g>
	<g>
		<g>
			<path style="fill:#002D4D;" d="M667.241,697.189v199.748c0,48.562,39.373,82.451,87.969,75.683l859.107-119.656v93.905
				c193.242-89.529,318.437-132.521,318.437-226.191V520.929c0-48.562-39.373-82.451-87.935-75.687L755.21,597.002
				C706.614,603.77,667.241,648.627,667.241,697.189z"/>
			
				<linearGradient id="SVGID_00000008871029480559768210000013692660716146552193_" gradientUnits="userSpaceOnUse" x1="-2063.7258" y1="1105.1038" x2="-2143.469" y2="1051.4449" gradientTransform="matrix(-1 0.1393 0 1 -548.6622 34.7912)">
				<stop  offset="0" style="stop-color:#FFFFFF"/>
				<stop  offset="0.4383" style="stop-color:#FDFDFD"/>
				<stop  offset="0.6098" style="stop-color:#F6F6F6"/>
				<stop  offset="0.7346" style="stop-color:#EAEAEA"/>
				<stop  offset="0.8368" style="stop-color:#D9D9D9"/>
				<stop  offset="0.9241" style="stop-color:#C2C2C2"/>
				<stop  offset="1" style="stop-color:#A8A8A8"/>
			</linearGradient>
			<path style="fill:url(#SVGID_00000008871029480559768210000013692660716146552193_);" d="M1507.467,777.43v90.416l106.849-14.882
				C1614.316,823.149,1592.92,774.448,1507.467,777.43z"/>
		</g>
		<g>
			<path style="fill:#FFFFFF;" d="M853.745,764.105c0,18.464,1.84,31.345,5.533,38.653c3.68,7.309,9.74,10.384,18.169,9.207
				c8.428-1.177,20.331-4.806,35.72-10.918l8.216,42.977c-16.651,8.364-33.404,13.729-50.254,16.072
				c-25.284,3.525-43.672-2.207-55.155-17.191c-11.484-14.991-17.223-38.911-17.223-71.761c0-32.863,6.002-58.83,18.015-77.924
				c12.011-19.095,31.602-30.534,58.791-34.317c16.007-2.233,31.287-1.023,45.827,3.629l-8.537,49.694
				c-16.432-3.14-27.916-4.253-34.452-3.346c-9.271,1.3-15.698,6.215-19.275,14.739C855.534,732.149,853.745,745.64,853.745,764.105
				z"/>
			<path style="fill:#FFFFFF;" d="M955.982,671.164c12.115-17.332,31.975-27.922,59.583-31.769c27.6-3.841,47.352,1.132,59.26,14.9
				c11.902,13.788,17.853,38.042,17.853,72.778c0,34.728-6.112,61.299-18.329,79.687c-12.224,18.394-32.033,29.491-59.421,33.307
				c-27.388,3.815-47.088-1.679-59.1-16.489c-12.012-14.804-18.014-39.58-18.014-74.309
				C937.814,714.527,943.868,688.496,955.982,671.164z M1033.733,696.474c-3.056-6.344-9.271-8.872-18.645-7.566
				c-9.38,1.306-15.44,5.539-18.175,12.7c-2.741,7.161-4.104,20.234-4.104,39.22v7.501c0,20.241,1.524,33.326,4.581,39.265
				c3.05,5.939,9.271,8.254,18.645,6.942c9.374-1.3,15.434-5.173,18.175-11.6c2.735-6.427,4.112-19.14,4.112-38.12v-10.017
				C1038.321,715.608,1036.789,702.831,1033.733,696.474z"/>
			<path style="fill:#FFFFFF;" d="M1313.604,795.334l-49.616,6.916V700.862l-2.844,0.399l-18.651,103.981l-50.884,7.09
				l-17.699-98.925l-3.159,0.444V815.24l-48.992,6.819l6.64-195.249l71.112-9.908l17.699,102.681l2.529-0.354l17.068-107.513
				l70.166-9.779L1313.604,795.334z"/>
			<path style="fill:#FFFFFF;" d="M1405.895,782.479l-53.728,7.489V595.645l53.728-7.489V782.479z"/>
			<path style="fill:#FFFFFF;" d="M1589.526,756.912l-51.83,7.219l-40.777-84.758l-2.529,0.348v90.438l-48.04,6.691V582.527
				l53.419-7.444l38.872,87.839l2.528-0.354v-93.25l48.356-6.729V756.912z"/>
			<path style="fill:#FFFFFF;" d="M1745.027,598.818c-20.227-3.229-35.031-4.195-44.406-2.889c-9.38,1.3-15.807,6.267-19.281,14.888
				c-3.474,8.621-5.211,21.746-5.211,39.374c0,17.628,1.627,30.225,4.896,37.804c3.262,7.579,9.96,10.661,20.073,9.252
				c2.947-0.412,8.634-2.033,17.062-4.876v-23.786l-14.219,1.982v-36.923l60.367-8.415v107.339l-37.296,5.192l-5.057-9.31
				l-1.267,0.18c-3.583,3.423-6.427,6.009-8.531,7.759c-5.9,5.199-14.225,8.551-24.969,10.049
				c-44.045,6.131-66.055-23.766-66.055-89.686c0-32.959,5.79-58.958,17.377-77.989c11.594-19.03,31.081-30.457,58.476-34.279
				c21.913-3.05,40.77-2.336,56.571,2.136L1745.027,598.818z"/>
		</g>
	</g>
	<polygon style="fill:#00D0A5;" points="740.854,774.968 128.234,860.294 128.234,837.857 740.854,752.532 	"/>
	<polygon style="fill:#00D0A5;" points="2256.916,768.547 1644.295,853.872 1644.295,831.436 2256.916,746.11 	"/>
	<polygon style="fill:#002D4D;" points="1914.68,1166.786 1302.059,1252.112 1302.059,1229.675 1914.68,1144.35 	"/>
</g>
</svg>
